<svg width="103" height="61" viewBox="0 0 103 61" fill="none" xmlns="http://www.w3.org/2000/svg">
<path fill-rule="evenodd" clip-rule="evenodd" d="M80.6816 17.7126C80.8587 17.5351 81.0691 17.3943 81.3007 17.2982C81.5323 17.2021 81.7805 17.1526 82.0313 17.1526C82.282 17.1526 82.5303 17.2021 82.7619 17.2982C82.9935 17.3943 83.2038 17.5351 83.3809 17.7126L94.8184 29.1501C94.9959 29.3272 95.1368 29.5375 95.2329 29.7691C95.329 30.0007 95.3784 30.249 95.3784 30.4997C95.3784 30.7505 95.329 30.9988 95.2329 31.2303C95.1368 31.4619 94.9959 31.6723 94.8184 31.8494L83.3809 43.2869C83.023 43.6448 82.5375 43.8459 82.0313 43.8459C81.5251 43.8459 81.0396 43.6448 80.6816 43.2869C80.3237 42.9289 80.1226 42.4435 80.1226 41.9372C80.1226 41.431 80.3237 40.9456 80.6816 40.5876L90.7733 30.4997L80.6816 20.4119C80.5041 20.2348 80.3633 20.0244 80.2672 19.7928C80.1711 19.5613 80.1216 19.313 80.1216 19.0622C80.1216 18.8115 80.1711 18.5632 80.2672 18.3316C80.3633 18.1001 80.5041 17.8897 80.6816 17.7126Z" fill="black"/>
<path fill-rule="evenodd" clip-rule="evenodd" d="M13 30.5C13 30.1022 13.3665 29.7206 14.0188 29.4393C14.6711 29.158 15.5558 29 16.4783 29H89.5217C90.4442 29 91.3289 29.158 91.9812 29.4393C92.6335 29.7206 93 30.1022 93 30.5C93 30.8978 92.6335 31.2794 91.9812 31.5607C91.3289 31.842 90.4442 32 89.5217 32H16.4783C15.5558 32 14.6711 31.842 14.0188 31.5607C13.3665 31.2794 13 30.8978 13 30.5Z" fill="black"/>
</svg>
