<svg width="80" height="80" viewBox="0 0 80 80" fill="none" xmlns="http://www.w3.org/2000/svg">
<path d="M79.9026 24.8508C79.8831 24.8081 79.8608 24.7666 79.836 24.7268C79.7865 24.6283 79.7246 24.5363 79.652 24.4534C79.544 24.3376 79.4173 24.2408 79.2773 24.1668C79.2287 24.1391 79.1783 24.1146 79.1267 24.0934C79.1013 24.0841 79.0813 24.0654 79.0546 24.0574L63.7507 19.4001L57.7507 17.4001C57.5343 17.3344 57.305 17.3248 57.084 17.3721L48.3787 14.7228C48.1255 14.6468 47.8557 14.6468 47.6027 14.7228L16.936 24.0561C16.9093 24.0641 16.8893 24.0828 16.864 24.0921C16.8123 24.1133 16.762 24.1378 16.7133 24.1654C16.5733 24.2394 16.4467 24.3363 16.3387 24.4521C16.266 24.5349 16.2042 24.6269 16.1547 24.7254C16.1298 24.7653 16.1075 24.8068 16.088 24.8494C16.0315 24.9954 16.0018 25.1503 16 25.3068C16 25.3068 16 25.3174 16 25.3228V25.3334V34.6668H10.6667V37.3334H24V34.6668H18.6667V27.2081L26.6667 29.9908V41.3334C26.6662 41.8788 26.9978 42.3693 27.504 42.5721L34.1707 45.2388C34.8542 45.5128 35.6303 45.1806 35.9043 44.4971C35.9677 44.3391 36.0002 44.1703 36 44.0001V33.2374L46.6667 36.9481V67.4588L18.6667 57.7254V57.3334C18.6667 56.5971 18.0697 56.0001 17.3333 56.0001C16.597 56.0001 16 56.5971 16 57.3334V58.6668C16.0002 59.2339 16.3592 59.7388 16.8947 59.9254L47.5613 70.5921H47.5853C47.7093 70.6329 47.8388 70.6553 47.9693 70.6588C47.98 70.6588 47.9893 70.6588 48 70.6588C48.1537 70.6568 48.3057 70.6279 48.4493 70.5734C48.4615 70.5719 48.4735 70.5696 48.4853 70.5668L79.152 58.5668C79.6605 58.3681 79.9965 57.8794 80 57.3334V25.3334V25.3228C80 25.3228 80 25.3121 80 25.3068C79.9952 25.1501 79.9622 24.9958 79.9026 24.8508ZM21.6373 25.4174L48 17.3934L52.8627 18.8734L28.4 27.7708L21.6373 25.4174ZM33.3333 42.0308L29.3333 40.4308V31.3028L33.3333 32.9028V42.0308ZM35.5827 30.2668L32.3827 29.1548L57.108 20.1641L61.12 21.3881L35.5827 30.2668ZM48 34.5881L39.6413 31.6814L65.4493 22.7041L74.3653 25.4174L48 34.5881ZM77.3333 56.4228L49.3333 67.3801V36.9481L77.3333 27.2148V56.4228Z" fill="white"/>
<path d="M5.33333 44H0V46.6667H5.33333V44Z" fill="white"/>
<path d="M8 52H4V54.6667H8V52Z" fill="white"/>
<path d="M18.6667 52V49.3333C18.6667 48.597 18.0697 48 17.3333 48C16.597 48 16 48.597 16 49.3333V52H10.6667V54.6667H33.3333V52H18.6667Z" fill="white"/>
<path d="M8 34.6665H4V37.3332H8V34.6665Z" fill="white"/>
<path d="M18.6667 44.0001V40.0001C18.6667 39.2637 18.0697 38.6667 17.3333 38.6667C16.597 38.6667 16 39.2637 16 40.0001V44.0001H8V46.6667H26.6667V44.0001H18.6667Z" fill="white"/>
<path d="M65.3333 6.66675H45.3333V9.33342H65.3333V6.66675Z" fill="white"/>
<path d="M42.6667 6.66675H38.6667V9.33342H42.6667V6.66675Z" fill="white"/>
<path d="M34.6667 70.6667H14.6667V73.3334H34.6667V70.6667Z" fill="white"/>
<path d="M12 70.6667H8V73.3334H12V70.6667Z" fill="white"/>
<path d="M56.596 36.14C55.9945 35.8395 55.2635 36.0338 54.8907 36.5933L51.484 41.7027L53.7027 43.1827L54.6667 41.7333V45.3333H57.3333V39.4907L59.2627 40.456L60.456 38.0707L56.596 36.14Z" fill="white"/>
<path d="M65.9293 32.14C65.3278 31.8395 64.5968 32.0338 64.224 32.5933L60.8173 37.7027L63.036 39.1827L64 37.7333V41.3333H66.6667V35.4907L68.596 36.456L69.7893 34.0707L65.9293 32.14Z" fill="white"/>
</svg>
