<svg width="80" height="80" viewBox="0 0 80 80" fill="none" xmlns="http://www.w3.org/2000/svg">
<g clip-path="url(#clip0)">
<path d="M18.277 14.7609C18.9242 14.7609 19.4489 14.2362 19.4489 13.589C19.4489 12.9418 18.9242 12.4171 18.277 12.4171C17.6298 12.4171 17.1052 12.9418 17.1052 13.589C17.1052 14.2362 17.6297 14.7609 18.277 14.7609ZM8.90203 14.7609C9.54922 14.7609 10.0739 14.2362 10.0739 13.589C10.0739 12.9418 9.54922 12.4171 8.90203 12.4171C8.25484 12.4171 7.73016 12.9418 7.73016 13.589C7.73016 14.2362 8.25469 14.7609 8.90203 14.7609ZM13.5895 14.7609C14.2367 14.7609 14.7614 14.2362 14.7614 13.589C14.7614 12.9418 14.2367 12.4171 13.5895 12.4171C12.9423 12.4171 12.4177 12.9418 12.4177 13.589C12.4177 14.2362 12.9422 14.7609 13.5895 14.7609ZM13.3325 27.1754C13.3397 27.1756 13.3469 27.1756 13.3541 27.1756L23.9492 27.1782H23.9498C24.6819 27.1782 25.3033 26.704 25.4966 25.9981C25.69 25.2918 25.3964 24.567 24.7664 24.1943L23.155 23.2409C25.745 20.6738 27.2017 17.1713 27.1786 13.5017C27.1322 6.16291 21.1256 0.106814 13.7891 0.00118855C6.18672 -0.10803 0 6.0415 0 13.5893C0 20.8273 5.96375 27.0187 13.3325 27.1754ZM5.69531 5.57994C7.85625 3.44994 10.7125 2.30228 13.7555 2.34463C19.8263 2.43197 24.7964 7.44353 24.8348 13.5163C24.8556 16.7927 23.4506 19.9085 20.98 22.0645C20.5669 22.4248 20.3505 22.9656 20.4005 23.511C20.4505 24.0562 20.7619 24.5481 21.233 24.8267L21.2447 24.8335L13.3656 24.8317C7.27469 24.7148 2.34375 19.697 2.34375 13.5893C2.34375 10.5548 3.53406 7.71041 5.69531 5.57994ZM78.8281 77.656H77.6562V60.2045C77.6562 55.6323 74.9545 51.4804 70.7602 49.6212L64.5842 46.9742C66.087 46.4999 67.4447 45.6543 68.5494 44.4813C70.2161 42.7118 71.1719 40.3107 71.1719 37.8937C71.1719 35.6727 70.3959 33.5765 68.9277 31.831C67.0911 29.6503 66.0797 26.8787 66.0797 24.0265V18.4109C66.0797 13.4924 64.1642 8.86931 60.6864 5.39322C57.2086 1.91509 52.585 -0.000217698 47.6672 -0.000217698C37.5153 -0.000217698 29.2563 8.25884 29.2563 18.4107V23.8435C29.2569 26.7948 28.097 29.6118 26.2123 31.8826C23.8403 34.7404 23.3475 38.6043 24.9264 41.9663C26.0983 44.462 28.212 46.2549 30.7425 47.0138L24.6097 49.6807C20.307 51.4913 17.5267 55.6774 17.5267 60.3453V74.1406C17.5267 74.7878 18.0513 75.3124 18.6986 75.3124C19.3459 75.3124 19.8705 74.7878 19.8705 74.1406V60.3453C19.8705 56.6231 22.0875 53.2848 25.5316 51.8356L33.2188 48.4928V55.5467H29.687C28.6917 55.5467 27.7391 55.971 27.0733 56.711C26.4077 57.451 26.0861 58.4431 26.1911 59.4328L28.1228 77.656H1.17188C0.524531 77.656 0 78.1807 0 78.8279C0 79.4751 0.524531 79.9998 1.17188 79.9998H78.8281C79.4755 79.9998 80 79.4751 80 78.8279C80 78.1807 79.4755 77.656 78.8281 77.656ZM67.1345 33.3401C68.2425 34.6573 68.8281 36.2318 68.8281 37.8935C68.8281 39.7196 68.1047 41.5349 66.8433 42.8743C65.5077 44.2923 63.6728 45.0732 61.6767 45.0732H60.1495L58.1434 44.2134C56.3911 43.4618 55.1923 41.8507 54.9473 39.9962C58.5631 38.0493 61.0267 34.2284 61.0267 29.842V21.0321C61.3697 21.0554 61.7123 21.0681 62.0541 21.0681C62.6177 21.0681 63.1791 21.036 63.7361 20.9729V24.0263C63.7359 27.4301 64.9431 30.7379 67.1345 33.3401ZM47.952 51.8403C43.7597 51.9145 39.5989 51.3832 35.5625 50.2637V47.4735L35.9014 47.3262C35.9041 47.3251 35.9067 47.3238 35.9095 47.3228L38.0002 46.4137C40.3273 45.402 41.9719 43.3298 42.4705 40.9082C43.4909 41.2049 44.568 41.3671 45.683 41.3671H49.5016C50.6208 41.3671 51.7019 41.2037 52.7258 40.9048C53.2408 43.3153 54.8916 45.3688 57.2198 46.3676L59.4511 47.3238C59.4525 47.3245 59.4539 47.3251 59.4553 47.3256L59.6206 47.3963V50.0334C55.828 51.1634 51.907 51.7712 47.952 51.8403ZM59.6203 52.4734V55.5468H35.5625V52.6906C39.3616 53.6867 43.2622 54.1907 47.1892 54.1907C47.457 54.1907 47.725 54.1884 47.993 54.1837C51.9289 54.1149 55.8327 53.5398 59.6203 52.4734ZM63.7359 18.6098C60.508 19.0459 56.8694 18.1812 54.3625 16.2388C53.8511 15.8426 53.115 15.9357 52.7184 16.4474C52.322 16.959 52.4155 17.6951 52.927 18.0915C54.5659 19.3612 56.5427 20.2556 58.683 20.7065V27.0863C58.1198 28.3698 57.493 29.4371 56.0797 30.6031C55.4847 31.094 54.8334 31.5017 54.1359 31.8251C53.5664 30.7137 52.4097 29.9509 51.0775 29.9509H48.3313C46.437 29.9509 44.8961 31.492 44.8961 33.386C44.8961 35.2801 46.437 36.8212 48.3313 36.8212H51.0775C52.6716 36.8212 54.0153 35.7296 54.4011 34.2549C55.9688 33.6576 58.5248 31.5267 58.5255 31.5259C57.7319 35.7863 53.9888 39.0228 49.5017 39.0228H45.6828C40.6203 39.0228 36.5016 34.9042 36.5016 29.8415V20.7831C40.4817 20.1592 44.2419 18.8123 47.6903 16.7726C52.9409 13.6668 56.3089 9.60838 58.3414 6.40197C61.8191 9.49931 63.7973 13.9398 63.7359 18.6098ZM52.1686 33.3893C52.1669 33.9898 51.6781 34.4777 51.0773 34.4777H48.3311C47.7292 34.4777 47.2397 33.9881 47.2397 33.3863C47.2397 32.7846 47.7294 32.2949 48.3311 32.2949H51.0773C51.678 32.2949 52.1666 32.7826 52.1686 33.3828V33.3893ZM31.6 18.4107C31.6 9.55119 38.8077 2.34353 47.6672 2.34353C50.8445 2.34353 53.8808 3.26072 56.4753 4.96822C54.6048 7.9665 51.4566 11.8221 46.497 14.7559C43.0947 16.7684 39.3627 18.0532 35.4042 18.5748H35.3311C35.3306 18.5748 35.3302 18.5748 35.3295 18.5748C35.3289 18.5748 35.3286 18.5748 35.328 18.5748H31.5998V18.4107H31.6ZM27.0477 40.9701C25.8594 38.4392 26.2303 35.5306 28.0144 33.3812C30.253 30.6842 31.6025 27.3517 31.6 23.8435V20.9185H34.1578V29.842C34.1578 34.2309 36.6245 38.0537 40.2436 39.9995C40.0172 41.8681 38.822 43.5004 37.0655 44.2642L35.2048 45.0732H33.5062C30.7109 45.0732 28.2362 43.501 27.0477 40.9701ZM67.8425 59.1859L65.8845 77.656H30.4797L28.5217 59.1859C28.4862 58.851 28.5906 58.5288 28.8158 58.2787C29.0409 58.0284 29.3505 57.8906 29.687 57.8906H66.6772C67.0137 57.8906 67.3233 58.0284 67.5484 58.2787C67.7736 58.5288 67.878 58.851 67.8425 59.1859ZM75.3125 77.656H68.2414L70.1731 59.4331C70.2781 58.4432 69.9564 57.4512 69.2909 56.7112C68.6252 55.9712 67.6727 55.5468 66.6772 55.5468H61.9641V48.401L69.8236 51.7696C73.158 53.2478 75.3125 56.5585 75.3125 60.2045V77.656ZM48.182 63.3201C45.7266 63.3201 43.7289 65.3178 43.7289 67.7732C43.7289 70.2287 45.7266 72.2263 48.182 72.2263C50.6375 72.2263 52.6352 70.2287 52.6352 67.7732C52.6352 65.3178 50.6375 63.3201 48.182 63.3201ZM48.182 69.8826C47.0189 69.8826 46.0727 68.9363 46.0727 67.7732C46.0727 66.6101 47.0189 65.6638 48.182 65.6638C49.3452 65.6638 50.2914 66.6101 50.2914 67.7732C50.2914 68.9363 49.3453 69.8826 48.182 69.8826Z" fill="white"/>
</g>
<defs>
<clipPath id="clip0">
<rect width="80" height="80" fill="white"/>
</clipPath>
</defs>
</svg>
