<svg width="80" height="80" viewBox="0 0 80 80" fill="none" xmlns="http://www.w3.org/2000/svg">
<path d="M63.6719 70.8159L51.25 37.2759V32.5C51.25 29.7059 51.7639 28.0416 52.3594 26.1142C53.0111 24.0027 53.75 21.6094 53.75 17.5C53.75 13.13 50.0705 3.69344 49.9137 3.29375C49.822 3.0598 49.6619 2.85893 49.4543 2.71733C49.2467 2.57574 49.0013 2.5 48.75 2.5H45C44.6924 2.5 44.3955 2.61345 44.1663 2.81862C43.9371 3.02379 43.7916 3.30628 43.7577 3.61203L43.4336 6.52797C42.9383 11.0094 41.7812 15.3926 40 19.5345C38.2188 15.3926 37.0617 11.0094 36.5664 6.52797L36.2423 3.61203C36.2084 3.30628 36.0629 3.02379 35.8337 2.81862C35.6045 2.61345 35.3076 2.5 35 2.5H31.25C30.9987 2.5 30.7533 2.57574 30.5457 2.71733C30.3381 2.85893 30.178 3.0598 30.0863 3.29375C29.9295 3.69344 26.25 13.13 26.25 17.5C26.25 21.6094 26.9889 24.0027 27.6406 26.1142C28.2358 28.0416 28.75 29.7059 28.75 32.5V37.2759L16.3281 70.8159C16.2212 71.1047 16.2246 71.4228 16.3378 71.7092C16.4509 71.9957 16.6658 72.2302 16.9413 72.368C17.3594 72.5781 27.3503 77.5 40 77.5C52.6497 77.5 62.6406 72.5781 63.0591 72.368C63.3344 72.2302 63.5493 71.9956 63.6623 71.7092C63.7754 71.4228 63.7788 71.1047 63.6719 70.8159ZM32.1119 5H33.8813L34.0817 6.80406C34.7073 12.4638 36.3326 17.9675 38.882 23.0591C38.9859 23.2667 39.1454 23.4412 39.3429 23.5633C39.5404 23.6853 39.7679 23.7499 40 23.7499C40.2321 23.7499 40.4596 23.6853 40.6571 23.5633C40.8546 23.4412 41.0141 23.2667 41.118 23.0591C43.6674 17.9675 45.2927 12.4638 45.9183 6.80406L46.1188 5H47.8883C48.2377 5.93313 48.8414 7.59203 49.4392 9.45188C50.6239 13.1366 51.25 15.9195 51.25 17.5C51.25 21.2322 50.5994 23.3392 49.9703 25.3767C49.4531 27.0509 48.9219 28.7763 48.785 31.25H31.215C31.0778 28.7763 30.5467 27.0509 30.0297 25.3767C29.4006 23.3392 28.75 21.2322 28.75 17.5C28.75 14.2723 31.2344 7.34453 32.1119 5ZM31.25 36.25V33.75H48.75V36.25H31.25ZM40 75C30.2059 75 21.888 71.8091 19.0759 70.5938L30.87 38.75H33.4531L30.0278 54.7381L32.4722 55.2619L36.0105 38.75H38.75V48.75H41.25V38.75H43.9895L47.5278 55.2619L49.9722 54.7381L46.5469 38.75H49.1306L60.9247 70.5938C58.1117 71.8092 49.7941 75 40 75Z" fill="white"/>
</svg>
