<svg width="78" height="78" viewBox="0 0 78 78" fill="none" xmlns="http://www.w3.org/2000/svg">
<path d="M67.0313 37.7812C67.7046 37.7812 68.25 38.3266 68.25 39C68.25 39.6734 67.7046 40.2188 67.0313 40.2188H64.5938C63.9204 40.2188 63.375 39.6734 63.375 39C63.375 38.3266 63.9204 37.7812 64.5938 37.7812H67.0313Z" fill="white"/>
<path d="M65.9999 12.5698C80.6752 27.402 80.5472 51.3246 65.715 65.9998C50.8828 80.6751 26.9603 80.5471 12.285 65.7149C12.189 65.6205 12.0946 65.526 12.0001 65.4301C-2.67516 50.5979 -2.54719 26.6753 12.285 12.0001C27.1172 -2.67522 51.0397 -2.54725 65.715 12.2849C65.811 12.3794 65.9054 12.4738 65.9999 12.5698ZM63.992 63.9919C77.7943 50.1896 77.7943 27.8103 63.992 14.0079C50.1897 0.205605 27.8104 0.205605 14.008 14.0079C0.205666 27.8103 0.205666 50.1896 14.008 63.9919C27.8104 77.7943 50.1897 77.7943 63.992 63.9919Z" fill="white"/>
<path d="M62.269 15.7325C75.1192 28.5842 75.1192 49.4187 62.2675 62.2689C49.4173 75.1207 28.5812 75.1207 15.731 62.2689C2.88083 49.4172 2.88083 28.5827 15.731 15.731C28.5827 2.88077 49.4188 2.88077 62.269 15.7325ZM69.4688 38.9999C69.4688 22.1995 55.8005 8.5312 39 8.5312C22.1995 8.5312 8.53126 22.1995 8.53126 38.9999C8.53126 55.8004 22.1995 69.4687 39 69.4687C55.8005 69.4687 69.4688 55.8004 69.4688 38.9999Z" fill="white"/>
<path d="M59.6822 18.3163C60.1591 18.7931 60.1591 19.564 59.6837 20.0408L57.9592 21.7638C57.4839 22.2406 56.7115 22.2406 56.2362 21.7638C55.7594 21.2885 55.7594 20.5161 56.2362 20.0408L57.9592 18.3178C58.4345 17.8409 59.2069 17.8409 59.6822 18.3163Z" fill="white"/>
<path d="M59.6822 57.959C60.159 58.4344 60.159 59.2067 59.6822 59.6821C59.2069 60.1589 58.4345 60.1589 57.9592 59.6821L56.2362 57.959C55.7594 57.4837 55.7594 56.7114 56.2362 56.236C56.7115 55.7592 57.4839 55.7592 57.9592 56.236L59.6822 57.959Z" fill="white"/>
<path d="M43.6328 22.4266C44.0365 22.9659 43.9268 23.7291 43.3875 24.1328C42.8482 24.5365 42.085 24.4268 41.6813 23.8875L40.2188 21.9375V34.125C40.2188 34.1753 40.2142 34.2271 40.2081 34.2774H40.2096C40.653 34.3916 41.0795 34.5668 41.4741 34.7999C43.7943 36.1649 44.5667 39.1524 43.2017 41.4726C41.8351 43.7913 38.8477 44.5652 36.5275 43.1986C34.2088 41.8336 33.4349 38.8462 34.8014 36.526L32.044 33.7686C31.5672 33.2917 31.5672 32.5209 32.044 32.044C32.5208 31.5672 33.2917 31.5672 33.7685 32.044L36.526 34.8015C36.9205 34.5668 37.3456 34.3901 37.7904 34.2774H37.7919C37.7858 34.2271 37.7813 34.1753 37.7813 34.125V21.9375L36.3188 23.8875C35.9151 24.4253 35.1503 24.535 34.6125 24.1313C34.0747 23.7276 33.9651 22.9628 34.3688 22.425L38.025 17.55C38.0936 17.4571 38.1758 17.3748 38.2688 17.3063C38.8065 16.9026 39.5713 17.0123 39.975 17.55L43.6313 22.425L43.6328 22.4266ZM40.2751 41.078C41.4223 40.3742 41.7818 38.8736 41.078 37.7265C40.3742 36.5778 38.8736 36.2183 37.7264 36.9221L37.7249 36.9236C37.3989 37.1247 37.1247 37.3989 36.9236 37.7249L36.9221 37.7265C36.6874 38.1104 36.5625 38.5506 36.5625 39C36.5625 40.3452 37.6533 41.4375 39 41.4375C39.4494 41.4375 39.8912 41.3126 40.2751 41.078Z" fill="white"/>
<path d="M40.2188 64.5938V67.0313C40.2188 67.7046 39.6734 68.25 39 68.25C38.3266 68.25 37.7812 67.7046 37.7812 67.0313V64.5938C37.7812 63.9204 38.3266 63.375 39 63.375C39.6734 63.375 40.2188 63.9204 40.2188 64.5938Z" fill="white"/>
<path d="M40.2188 10.9688V13.4062C40.2188 14.0796 39.6734 14.625 39 14.625C38.3266 14.625 37.7812 14.0796 37.7812 13.4062V10.9688C37.7812 10.2954 38.3266 9.75 39 9.75C39.6734 9.75 40.2188 10.2954 40.2188 10.9688Z" fill="white"/>
<path d="M21.7638 20.0408C22.2407 20.5161 22.2407 21.2885 21.7638 21.7638C21.2885 22.2406 20.5161 22.2406 20.0408 21.7638L18.3178 20.0408C17.841 19.564 17.841 18.7931 18.3178 18.3163C18.7931 17.8409 19.5655 17.8409 20.0408 18.3178L21.7638 20.0408Z" fill="white"/>
<path d="M21.7638 56.236C22.2407 56.7114 22.2407 57.4837 21.7638 57.9591L20.0408 59.6836C19.5655 60.1589 18.7931 60.1589 18.3178 59.6836C17.841 59.2067 17.841 58.4344 18.3178 57.9591L20.0408 56.236C20.5161 55.7592 21.2885 55.7592 21.7638 56.236Z" fill="white"/>
<path d="M13.4062 37.7812C14.0796 37.7812 14.625 38.3266 14.625 39C14.625 39.6734 14.0796 40.2188 13.4062 40.2188H10.9688C10.2954 40.2188 9.75 39.6734 9.75 39C9.75 38.3266 10.2954 37.7812 10.9688 37.7812H13.4062Z" fill="white"/>
</svg>
